<?xml version="1.0" encoding="utf-8"?>
<!-- Generator: Adobe Illustrator 17.0.0, SVG Export Plug-In . SVG Version: 6.00 Build 0)  -->
<!DOCTYPE svg PUBLIC "-//W3C//DTD SVG 1.1//EN" "http://www.w3.org/Graphics/SVG/1.1/DTD/svg11.dtd">
<svg version="1.1" id="Layer_1" xmlns="http://www.w3.org/2000/svg" xmlns:xlink="http://www.w3.org/1999/xlink" x="0px" y="0px"
	 width="176.062px" height="46.915px" viewBox="0 0 176.062 46.915" enable-background="new 0 0 176.062 46.915"
	 xml:space="preserve">
<g>
	<path d="M46.846,33.178v-16.4h-3.129v-2.736h7.466l9.594,17.001V16.778h-3.098v-2.736h8.979v2.736h-3.224v19.356h-3.389
		L49.55,17.466v15.712h3.129v2.736h-8.962v-2.736H46.846z"/>
	<path d="M83.986,29.059H71.186c0.188,1.405,0.744,2.542,1.666,3.412c0.923,0.87,2.102,1.305,3.539,1.305
		c2.086,0,3.737-0.839,4.953-2.516l2.642,1.164c-0.859,1.332-1.977,2.319-3.35,2.964c-1.373,0.646-2.809,0.968-4.308,0.968
		c-2.327,0-4.317-0.727-5.968-2.178c-1.65-1.452-2.476-3.41-2.476-5.873c0-2.337,0.804-4.261,2.414-5.771s3.457-2.264,5.543-2.264
		c2.044,0,3.896,0.736,5.558,2.209C83.06,23.951,83.923,26.145,83.986,29.059z M80.904,26.889c-0.21-1.069-0.766-2.036-1.667-2.901
		s-2.007-1.297-3.317-1.297c-1.195,0-2.217,0.391-3.067,1.171c-0.849,0.781-1.367,1.79-1.557,3.027H80.904z"/>
	<path d="M90.423,36.166l-4.078-12.814H84.49v-2.658h6.415v2.658h-1.993l2.913,9.183l2.909-9.183h-1.659v-2.658h7.358v2.658h-1.675
		l2.909,9.183l2.921-9.183h-2.096v-2.658h6.872v2.658h-2.187l-4.082,12.814h-2.813l-3.49-11.006L93.24,36.166H90.423z"/>
	<path d="M110.685,35.915v-5.221h2.674v0.503c0.094,0.713,0.479,1.3,1.155,1.761c0.676,0.461,1.476,0.692,2.397,0.692
		c0.965,0,1.735-0.167,2.312-0.503c0.577-0.335,0.865-0.802,0.865-1.399c0-0.576-0.238-1-0.716-1.273
		c-0.477-0.272-1.423-0.523-2.838-0.752c-2.098-0.354-3.594-0.927-4.489-1.719c-0.896-0.792-1.344-1.817-1.344-3.076
		c0-1.27,0.487-2.331,1.462-3.186s2.259-1.283,3.853-1.283c1.436,0,2.673,0.296,3.711,0.887v-0.651h2.657v5.047h-2.657v-0.928
		c-0.808-1.247-1.981-1.871-3.522-1.871c-0.786,0-1.434,0.17-1.942,0.511c-0.508,0.341-0.762,0.794-0.762,1.36
		c0,0.577,0.232,0.973,0.699,1.188s1.471,0.442,3.012,0.682c1.478,0.229,2.594,0.499,3.349,0.809
		c0.755,0.309,1.381,0.823,1.879,1.542c0.498,0.718,0.747,1.554,0.747,2.508c0,1.416-0.543,2.541-1.628,3.375
		s-2.492,1.25-4.222,1.25c-1.625,0-2.95-0.369-3.978-1.106v0.855H110.685z"/>
	<path d="M127.526,33.178v-16.4h-2.688v-2.736h7.279c2.003,0,3.504,0.121,4.505,0.362s1.885,0.852,2.649,1.832
		c0.766,0.98,1.148,2.131,1.148,3.451c0,1.017-0.229,1.934-0.685,2.752c-0.456,0.817-1.124,1.436-2.005,1.855
		c1.217,0.419,2.152,1.114,2.808,2.083c0.654,0.97,0.982,2.079,0.982,3.326c0,1.08-0.244,2.06-0.731,2.94
		c-0.487,0.88-1.135,1.562-1.941,2.044c-0.808,0.483-1.69,0.808-2.649,0.975c-0.96,0.168-2.268,0.252-3.924,0.252h-7.437v-2.736
		H127.526z M130.827,23.147h2.06c1.572,0,2.671-0.275,3.295-0.826c0.623-0.55,0.936-1.36,0.936-2.429c0-2.076-1.41-3.113-4.23-3.113
		h-2.06V23.147z M130.827,33.178h1.242c1.625,0,2.814-0.081,3.569-0.244s1.37-0.545,1.848-1.148
		c0.477-0.603,0.716-1.376,0.716-2.319c0-0.859-0.229-1.58-0.685-2.162c-0.456-0.582-1.043-0.969-1.761-1.164
		c-0.719-0.194-1.732-0.291-3.043-0.291h-1.887V33.178z"/>
	<path d="M144.115,28.304c0-2.348,0.775-4.274,2.327-5.778c1.551-1.504,3.443-2.256,5.676-2.256c2.191,0,4.072,0.742,5.646,2.225
		c1.572,1.483,2.358,3.419,2.358,5.81s-0.784,4.33-2.351,5.818c-1.567,1.489-3.452,2.233-5.653,2.233
		c-2.264,0-4.164-0.755-5.699-2.265C144.882,32.581,144.115,30.652,144.115,28.304z M147.275,28.296
		c0,1.502,0.469,2.733,1.407,3.694c0.938,0.96,2.084,1.44,3.436,1.44c1.373,0,2.524-0.485,3.451-1.456
		c0.928-0.97,1.392-2.196,1.392-3.678c0-1.492-0.472-2.72-1.415-3.686s-2.086-1.448-3.428-1.448c-1.404,0-2.563,0.493-3.475,1.479
		S147.275,26.846,147.275,28.296z"/>
	<path d="M162.323,23.351v-2.658h1.981v-2.343l2.987-2.736v5.079h2.814v2.658h-2.814v7.39c0,1.185,0.065,1.916,0.196,2.193
		c0.132,0.278,0.459,0.417,0.983,0.417c0.556,0,1.101-0.104,1.635-0.314v2.721c-0.765,0.272-1.53,0.408-2.295,0.408
		c-0.912,0-1.651-0.201-2.218-0.605c-0.565-0.403-0.922-0.909-1.069-1.517c-0.146-0.608-0.22-1.656-0.22-3.145v-7.547H162.323z"/>
</g>
<defs>
	<filter id="Adobe_OpacityMaskFilter" filterUnits="userSpaceOnUse" x="11.566" y="15.915" width="19" height="11">
		<feColorMatrix  type="matrix" values="1 0 0 0 0  0 1 0 0 0  0 0 1 0 0  0 0 0 1 0"/>
	</filter>
</defs>
<mask maskUnits="userSpaceOnUse" x="11.566" y="15.915" width="19" height="11" id="SVGID_1_">
	<g filter="url(#Adobe_OpacityMaskFilter)">
		<path fill="#FFFFFF" d="M21.566,16.477c4.091,0,7.474,2.438,7.944,7.438H13.622C14.092,18.915,17.475,16.477,21.566,16.477"/>
		<g>
			<rect x="17.566" y="21.915" width="6" height="2"/>
			<polygon points="15.566,19.915 17.566,19.915 17.566,20.915 16.566,20.915 16.566,23.915 15.566,23.915 			"/>
			<polygon points="17.566,17.915 17.566,18.915 18.566,18.915 18.566,20.915 22.566,20.915 22.566,17.915 			"/>
			<polygon points="23.566,18.915 23.566,20.915 24.566,20.915 24.566,19.915 25.545,19.915 25.545,18.915 			"/>
			<rect x="25.566" y="20.915" width="3" height="3"/>
		</g>
	</g>
</mask>
<g mask="url(#SVGID_1_)">
	<rect x="11.566" y="15.915" width="19" height="11"/>
</g>
<g>
	<g>
		<rect x="15.566" y="29.915" width="3" height="6"/>
		<rect x="15.566" y="27.915" width="3" height="1"/>
	</g>
	<g>
		<rect x="24.566" y="29.915" width="3" height="6"/>
		<rect x="24.566" y="27.915" width="3" height="1"/>
	</g>
</g>
<path d="M30.566,24.915c0-6-4.029-9.437-9-9.437l0,0c-4.971,0-9,3.437-9,9.437l-0.003,14.961c-5.285-2.97-8.855-8.63-8.855-15.124
	c0-9.575,7.762-17.337,17.337-17.337s17.337,7.762,17.337,17.337c0,6.058-2.815,11.39-7.815,14.49V24.915z"/>
</svg>
