<?xml version="1.0" encoding="utf-8"?>
<!-- Generator: Adobe Illustrator 17.0.0, SVG Export Plug-In . SVG Version: 6.00 Build 0)  -->
<!DOCTYPE svg PUBLIC "-//W3C//DTD SVG 1.1//EN" "http://www.w3.org/Graphics/SVG/1.1/DTD/svg11.dtd">
<svg version="1.1" id="Layer_1" xmlns="http://www.w3.org/2000/svg" xmlns:xlink="http://www.w3.org/1999/xlink" x="0px" y="0px"
	 width="34.673px" height="32.461px" viewBox="0 0 34.673 32.461" enable-background="new 0 0 34.673 32.461" xml:space="preserve">
<defs>
	<filter id="Adobe_OpacityMaskFilter" filterUnits="userSpaceOnUse" x="7.858" y="8.5" width="19" height="11">
		<feColorMatrix  type="matrix" values="1 0 0 0 0  0 1 0 0 0  0 0 1 0 0  0 0 0 1 0"/>
	</filter>
</defs>
<mask maskUnits="userSpaceOnUse" x="7.858" y="8.5" width="19" height="11" id="SVGID_1_">
	<g filter="url(#Adobe_OpacityMaskFilter)">
		<path fill="#FFFFFF" d="M17.858,9.063c4.091,0,7.474,2.438,7.944,7.438H9.914C10.385,11.5,13.768,9.063,17.858,9.063"/>
		<g>
			<rect x="13.858" y="14.5" width="6" height="3"/>
			<polygon points="11.858,12.5 13.858,12.5 13.858,13.5 12.858,13.5 12.858,17.5 11.858,17.5 			"/>
			<polygon points="13.858,10.5 13.858,11.5 14.858,11.5 14.858,13.5 18.858,13.5 18.858,10.5 			"/>
			<polygon points="19.858,11.5 19.858,13.5 20.858,13.5 20.858,12.5 21.838,12.5 21.838,11.5 			"/>
			<rect x="21.858" y="13.5" width="3" height="4"/>
		</g>
	</g>
</mask>
<g mask="url(#SVGID_1_)">
	<rect x="7.858" y="8.5" fill="#0B132B" width="19" height="11"/>
</g>
<g>
	<g>
		<rect x="11.858" y="22.5" fill="#0B132B" width="3" height="6"/>
		<rect x="11.858" y="20.5" fill="#0B132B" width="3" height="1"/>
	</g>
	<g>
		<rect x="20.858" y="22.5" fill="#0B132B" width="3" height="6"/>
		<rect x="20.858" y="20.5" fill="#0B132B" width="3" height="1"/>
	</g>
</g>
<path fill="#0B132B" d="M26.858,17.5c0-6-4.029-9.438-9-9.438l0,0c-4.971,0-9,3.438-9,9.438L8.855,32.461
	C3.57,29.491,0,23.831,0,17.337C0,7.762,7.762,0,17.337,0s17.337,7.762,17.337,17.337c0,6.058-2.815,11.39-7.815,14.49V17.5z"/>
</svg>
