<?xml version="1.0" encoding="utf-8"?>
<!-- Generator: Adobe Illustrator 17.0.0, SVG Export Plug-In . SVG Version: 6.00 Build 0)  -->
<!DOCTYPE svg PUBLIC "-//W3C//DTD SVG 1.1//EN" "http://www.w3.org/Graphics/SVG/1.1/DTD/svg11.dtd">
<svg version="1.1" id="Layer_1" xmlns="http://www.w3.org/2000/svg" xmlns:xlink="http://www.w3.org/1999/xlink" x="0px" y="0px"
	 width="176.062px" height="46.915px" viewBox="0 0 176.062 46.915" enable-background="new 0 0 176.062 46.915"
	 xml:space="preserve">
<text transform="matrix(1 0 0 1 43.5596 35.9144)" font-family="'Rockwell'" font-size="32.202">NewsBot</text>
<defs>
	<filter id="Adobe_OpacityMaskFilter" filterUnits="userSpaceOnUse" x="11.566" y="15.915" width="19" height="11">
		<feColorMatrix  type="matrix" values="1 0 0 0 0  0 1 0 0 0  0 0 1 0 0  0 0 0 1 0"/>
	</filter>
</defs>
<mask maskUnits="userSpaceOnUse" x="11.566" y="15.915" width="19" height="11" id="SVGID_1_">
	<g filter="url(#Adobe_OpacityMaskFilter)">
		<path fill="#FFFFFF" d="M21.566,16.477c4.091,0,7.474,2.438,7.944,7.438H13.622C14.092,18.915,17.475,16.477,21.566,16.477"/>
		<g>
			<rect x="17.566" y="21.915" width="6" height="2"/>
			<polygon points="15.566,19.915 17.566,19.915 17.566,20.915 16.566,20.915 16.566,23.915 15.566,23.915 			"/>
			<polygon points="17.566,17.915 17.566,18.915 18.566,18.915 18.566,20.915 22.566,20.915 22.566,17.915 			"/>
			<polygon points="23.566,18.915 23.566,20.915 24.566,20.915 24.566,19.915 25.545,19.915 25.545,18.915 			"/>
			<rect x="25.566" y="20.915" width="3" height="3"/>
		</g>
	</g>
</mask>
<g mask="url(#SVGID_1_)">
	<rect x="11.566" y="15.915" width="19" height="11"/>
</g>
<g>
	<g>
		<rect x="15.566" y="29.915" width="3" height="6"/>
		<rect x="15.566" y="27.915" width="3" height="1"/>
	</g>
	<g>
		<rect x="24.566" y="29.915" width="3" height="6"/>
		<rect x="24.566" y="27.915" width="3" height="1"/>
	</g>
</g>
<path d="M30.566,24.915c0-6-4.029-9.437-9-9.437l0,0c-4.971,0-9,3.437-9,9.437l-0.003,14.961c-5.285-2.97-8.855-8.63-8.855-15.124
	c0-9.575,7.762-17.337,17.337-17.337s17.337,7.762,17.337,17.337c0,6.058-2.815,11.39-7.815,14.49V24.915z"/>
</svg>
